<svg width="31" height="26" viewBox="0 0 31 26" fill="none" xmlns="http://www.w3.org/2000/svg">
<path d="M7.035 13.765C5.19167 13.765 3.68667 13.1583 2.52 11.945C1.35333 10.7317 0.77 9.075 0.77 6.975C0.77 5.59833 1.03833 4.39667 1.575 3.37C2.11167 2.34333 2.84667 1.56166 3.78 1.025C4.73667 0.464998 5.82167 0.184998 7.035 0.184998C8.90167 0.184998 10.4183 0.803332 11.585 2.04C12.7517 3.25333 13.335 4.89833 13.335 6.975C13.335 9.075 12.7517 10.7317 11.585 11.945C10.4183 13.1583 8.90167 13.765 7.035 13.765ZM21.525 0.499998H26.565L9.835 25H4.795L21.525 0.499998ZM7.035 10.44C7.665 10.44 8.16667 10.16 8.54 9.6C8.91333 9.04 9.1 8.165 9.1 6.975C9.1 5.785 8.91333 4.91 8.54 4.35C8.16667 3.79 7.665 3.51 7.035 3.51C6.42833 3.51 5.92667 3.80167 5.53 4.385C5.15667 4.945 4.97 5.80833 4.97 6.975C4.97 8.14167 5.15667 9.01667 5.53 9.6C5.92667 10.16 6.42833 10.44 7.035 10.44ZM24.325 25.315C22.4583 25.315 20.9417 24.7083 19.775 23.495C18.6317 22.2817 18.06 20.625 18.06 18.525C18.06 16.4483 18.6433 14.8033 19.81 13.59C20.9767 12.3533 22.4817 11.735 24.325 11.735C26.1917 11.735 27.7083 12.3533 28.875 13.59C30.0417 14.8033 30.625 16.4483 30.625 18.525C30.625 20.625 30.0417 22.2817 28.875 23.495C27.7083 24.7083 26.1917 25.315 24.325 25.315ZM24.325 21.99C24.955 21.99 25.4567 21.71 25.83 21.15C26.2033 20.59 26.39 19.715 26.39 18.525C26.39 17.335 26.2033 16.46 25.83 15.9C25.4567 15.34 24.955 15.06 24.325 15.06C23.695 15.06 23.1933 15.34 22.82 15.9C22.4467 16.46 22.26 17.335 22.26 18.525C22.26 19.715 22.4467 20.59 22.82 21.15C23.1933 21.71 23.695 21.99 24.325 21.99Z" fill="white"/>
</svg>
